<svg width="280" height="60" viewBox="0 0 280 60" fill="none" xmlns="http://www.w3.org/2000/svg">
  <defs>
    <linearGradient id="blueGrad" x1="0%" y1="100%" x2="0%" y2="0%">
      <stop offset="0%" style="stop-color:#1e3a8a;stop-opacity:1" />
      <stop offset="100%" style="stop-color:#3b82f6;stop-opacity:1" />
    </linearGradient>
    <linearGradient id="orangeGrad" x1="0%" y1="100%" x2="0%" y2="0%">
      <stop offset="0%" style="stop-color:#ea580c;stop-opacity:1" />
      <stop offset="100%" style="stop-color:#fb923c;stop-opacity:1" />
    </linearGradient>
  </defs>
  
  <!-- Left tall trapezoidal shape (blue gradient) -->
  <path d="M5 50 L5 10 L10 5 L10 45 Z" fill="url(#blueGrad)"/>
  
  <!-- Middle inverted trapezoidal shape (teal) -->
  <path d="M10 5 L16 5 L20 12 L16 28 L10 28 Z" fill="#14b8a6"/>
  
  <!-- Right larger trapezoidal shape (orange gradient) -->
  <path d="M16 28 L16 5 L28 5 L28 50 L22 50 Z" fill="url(#orangeGrad)"/>
  
  <!-- Curved line with dots above text -->
  <path d="M 120 18 Q 140 12, 160 18" stroke="#d1d5db" stroke-width="1.5" fill="none"/>
  <circle cx="125" cy="16" r="2" fill="#4b5563"/>
  <circle cx="135" cy="14" r="2" fill="#4b5563"/>
  <circle cx="145" cy="13" r="2" fill="#4b5563"/>
  <circle cx="155" cy="14" r="2" fill="#4b5563"/>
  <circle cx="165" cy="16" r="2" fill="#4b5563"/>
  
  <!-- Text: ASTOBIA (large, bold, dark blue) -->
  <text x="35" y="32" font-family="Arial, sans-serif" font-size="22" font-weight="bold" fill="#1e3a8a">ASTOBIA</text>
  
  <!-- Text: INFOTECH (smaller, medium gray) -->
  <text x="35" y="48" font-family="Arial, sans-serif" font-size="13" font-weight="normal" fill="#6b7280">INFOTECH</text>
</svg>
